<mxfile host="app.diagrams.net" modified="2023-11-19T16:20:37.919Z" agent="Mozilla/5.0 (Windows NT 10.0; WOW64) AppleWebKit/537.36 (KHTML, like Gecko) Chrome/87.0.4280.141 Safari/537.36" version="22.1.3" etag="_duYsmUH9I41EAHnIwPL" type="github">
  <diagram name="第 1 页" id="yIx4gat5qXwNkygCrNYt">
    <mxGraphModel>
      <root>
        <mxCell id="0" />
        <mxCell id="1" parent="0" />
      </root>
    </mxGraphModel>
  </diagram>
</mxfile>
